<svg viewBox="-2.345 -2.345 300 300" xmlns="http://www.w3.org/2000/svg" height="300" width="300"><path d="M3.0761458333333334 132.27427083333333a123.04583333333333 123.04583333333333 0 1 0 246.09166666666667 0 123.04583333333333 123.04583333333333 0 1 0 -246.09166666666667 0Z" fill="#ffe500" stroke-width="4.69"></path><path d="M126.12197916666666 9.2284375a123.04583333333333 123.04583333333333 0 1 0 123.04583333333333 123.04583333333333 123.04583333333333 123.04583333333333 0 0 0 -123.04583333333333 -123.04583333333333Zm0 227.63479166666667a112.27932291666667 112.27932291666667 0 1 1 112.27932291666667 -112.27932291666667A112.27932291666667 112.27932291666667 0 0 1 126.12197916666666 236.86322916666666Z" fill="#ebcb00" stroke-width="4.69"></path><path d="M89.20822916666667 33.837604166666665a36.91375 9.2284375 0 1 0 73.8275 0 36.91375 9.2284375 0 1 0 -73.8275 0Z" fill="#fff48c" stroke-width="4.69"></path><path d="M27.685312500000002 279.92927083333336a98.43666666666667 9.2284375 0 1 0 196.87333333333333 0 98.43666666666667 9.2284375 0 1 0 -196.87333333333333 0Z" fill="#45413c" opacity=".15" stroke-width="4.69"></path><path d="M3.0761458333333334 132.27427083333333a123.04583333333333 123.04583333333333 0 1 0 246.09166666666667 0 123.04583333333333 123.04583333333333 0 1 0 -246.09166666666667 0Z" fill="none" stroke="#45413c" stroke-linecap="round" stroke-linejoin="round" stroke-width="4.69"></path><path d="M215.33020833333333 163.03572916666667c0 5.106402083333333 -6.890566666666667 9.2284375 -15.380729166666667 9.2284375s-15.380729166666667 -4.122035416666667 -15.380729166666667 -9.2284375 6.890566666666667 -9.2284375 15.380729166666667 -9.2284375 15.380729166666667 4.122035416666667 15.380729166666667 9.2284375Z" fill="#ffaa54" stroke-width="4.69"></path><path d="M36.91375 163.03572916666667c0 5.106402083333333 6.890566666666667 9.2284375 15.380729166666667 9.2284375s15.380729166666667 -4.122035416666667 15.380729166666667 -9.2284375S60.78464166666667 153.80729166666666 52.29447916666667 153.80729166666666 36.91375 157.92932708333333 36.91375 163.03572916666667Z" fill="#ffaa54" stroke-width="4.69"></path><path d="M39.989895833333335 139.96463541666668a10.766510416666666 10.766510416666666 0 0 1 21.53302083333333 0" fill="none" stroke="#45413c" stroke-linecap="round" stroke-linejoin="round" stroke-width="4.69"></path><path d="M190.72104166666668 139.96463541666668a10.766510416666666 10.766510416666666 0 0 1 21.53302083333333 0" fill="none" stroke="#45413c" stroke-linecap="round" stroke-linejoin="round" stroke-width="4.69"></path><path d="m262.5182854166667 188.69078541666667 27.931404166666667 -9.351483333333334a2.645485416666667 2.645485416666667 0 0 0 0 -4.98335625l-22.948047916666667 -7.628841666666666A10.52041875 10.52041875 0 0 1 260.85716666666667 159.95958333333334l-7.628841666666666 -22.948047916666667a2.7070083333333335 2.7070083333333335 0 0 0 -2.522439583333333 -1.7841645833333333 2.5839624999999997 2.5839624999999997 0 0 0 -2.460916666666667 1.7841645833333333L240.55460416666668 159.95958333333334a10.52041875 10.52041875 0 0 1 -6.767520833333334 6.767520833333334l-22.948047916666667 7.628841666666666a2.645485416666667 2.645485416666667 0 0 0 0 4.98335625L233.78708333333333 187.02966666666666a10.52041875 10.52041875 0 0 1 6.644475000000001 6.644475000000001l7.690364583333333 22.948047916666667a2.5839624999999997 2.5839624999999997 0 0 0 2.460916666666667 1.7841645833333333 2.7070083333333335 2.7070083333333335 0 0 0 2.522439583333333 -1.7841645833333333Z" fill="#ffffff" stroke="#45413c" stroke-linecap="round" stroke-linejoin="round" stroke-width="4.69"></path><path d="M126.12197916666666 224.86626041666665c56.60108333333333 0 64.16840208333333 -23.6248 60.84616458333334 -43.06604166666666a20.979314583333334 20.979314583333334 0 0 0 -28.05445 -14.519408333333333 101.02062916666668 101.02062916666668 0 0 1 -32.79171458333333 5.167924999999999 101.02062916666668 101.02062916666668 0 0 1 -32.79171458333333 -5.167924999999999 20.979314583333334 20.979314583333334 0 0 0 -28.05445 14.519408333333333c-3.3222375000000004 19.441241666666667 4.24508125 43.06604166666666 60.84616458333334 43.06604166666666Z" fill="#ffffff" stroke="#45413c" stroke-linecap="round" stroke-linejoin="round" stroke-width="4.69"></path><path d="M187.52185 186.29139166666667a105.08114166666665 105.08114166666665 0 0 1 -28.300541666666664 8.367116666666668 198.7190208333333 198.7190208333333 0 0 1 -33.099329166666664 2.522439583333333 198.7190208333333 198.7190208333333 0 0 1 -33.099329166666664 -2.522439583333333 105.08114166666665 105.08114166666665 0 0 1 -28.300541666666664 -8.367116666666668" fill="none" stroke="#45413c" stroke-linecap="round" stroke-linejoin="round" stroke-width="4.69"></path><path d="m97.0831625 168.51126875 -4.060512500000001 26.147239583333334 -3.8759437500000002 25.162872916666664" fill="none" stroke="#45413c" stroke-linecap="round" stroke-linejoin="round" stroke-width="4.69"></path><path d="m126.12197916666666 224.86626041666665 0 -52.29447916666667" fill="none" stroke="#45413c" stroke-linecap="round" stroke-linejoin="round" stroke-width="4.69"></path><path d="m155.22231875 168.51126875 3.9989895833333335 26.147239583333334 3.8759437500000002 25.162872916666664" fill="none" stroke="#45413c" stroke-linecap="round" stroke-linejoin="round" stroke-width="4.69"></path></svg>